<svg width="23" height="21" viewBox="0 0 23 21" fill="currentColor" xmlns="http://www.w3.org/2000/svg">
<path d="M14.7963 1.31662e-07C13.5563 1.31662e-07 12.5526 1.28253 12.5526 2.86506C12.5526 3.81675 12.9242 4.70911 13.5466 5.24073C13.8168 9.09498 13.3198 12.4698 10.9603 12.8401C8.05554 13.1344 7.42826 9.60287 6.87819 6.24227C7.30763 5.49705 7.3221 4.46229 6.90714 3.52246C6.26056 2.06098 4.80335 1.27589 3.64723 1.77001C2.49304 2.26366 2.08048 3.84523 2.72513 5.30719C3.18063 6.3372 4.06509 7.06818 4.99635 7.18685C6.6321 9.92089 8.46085 14.4207 7.45721 15.7402C6.90231 16.4617 5.87937 16.2339 4.77439 15.5504C4.95293 14.7767 4.55726 13.908 3.77027 13.3337C2.67302 12.5315 1.17431 12.5505 0.422059 13.3717C-0.330674 14.1928 -0.0493639 15.5077 1.04934 16.3098C1.90726 16.9316 3.04359 17.074 3.86919 16.6611C7.14357 18.2227 9.74918 21.384 12.3403 20.9615C16.0171 20.3634 16.0316 15.2988 19.4961 13.8463C20.1572 14.2783 21.1125 14.2403 21.8942 13.7467C22.9172 13.0964 23.2984 11.886 22.7483 11.0458C22.1982 10.2009 20.9195 10.0443 19.8918 10.6946C19.1246 11.1835 18.6903 12.0142 18.8061 12.7784C17.3634 13.8416 15.5008 14.6628 14.5261 14.0742C13.7445 13.6043 14.613 8.26907 15.4429 5.60622C16.3887 5.24073 17.0401 4.13003 17.0401 2.86506C17.0401 1.28253 16.0364 -0.00047453 14.7963 1.31662e-07Z" fill="black"/>
</svg>
