<svg width="22" height="21" viewBox="0 0 22 21" fill="currentColor" xmlns="http://www.w3.org/2000/svg">
<path d="M6.26427 2.55054C5.97724 2.55054 5.69302 2.60707 5.42783 2.71691C5.16265 2.82676 4.9217 2.98776 4.71874 3.19072C4.51577 3.39368 4.35478 3.63463 4.24493 3.89982C4.13509 4.165 4.07856 4.44922 4.07856 4.73625C4.07856 5.02328 4.13509 5.30751 4.24493 5.57269C4.35478 5.83787 4.51577 6.07882 4.71874 6.28179C4.9217 6.48475 5.16265 6.64575 5.42783 6.75559C5.69302 6.86543 5.97724 6.92197 6.26427 6.92197C6.84396 6.92197 7.3999 6.69169 7.80981 6.28179C8.21971 5.87189 8.44999 5.31594 8.44999 4.73625C8.44999 4.15656 8.21971 3.60062 7.80981 3.19072C7.3999 2.78082 6.84396 2.55054 6.26427 2.55054ZM15.7357 2.55127C15.156 2.55127 14.6001 2.78155 14.1902 3.19145C13.7803 3.60135 13.55 4.15729 13.55 4.73698C13.55 5.31667 13.7803 5.87261 14.1902 6.28252C14.6001 6.69242 15.156 6.9227 15.7357 6.9227C16.3154 6.9227 16.8713 6.69242 17.2812 6.28252C17.6911 5.87261 17.9214 5.31667 17.9214 4.73698C17.9214 4.15729 17.6911 3.60135 17.2812 3.19145C16.8713 2.78155 16.3154 2.55127 15.7357 2.55127ZM12.0928 7.65127C11.8996 7.65127 11.7143 7.72803 11.5777 7.86466C11.441 8.0013 11.3643 8.18661 11.3643 8.37984C11.3643 8.57307 11.441 8.75838 11.5777 8.89502C11.7143 9.03165 11.8996 9.10841 12.0928 9.10841C12.2861 9.10841 12.4714 9.03165 12.608 8.89502C12.7447 8.75838 12.8214 8.57307 12.8214 8.37984C12.8214 8.18661 12.7447 8.0013 12.608 7.86466C12.4714 7.72803 12.2861 7.65127 12.0928 7.65127ZM9.90713 7.65127C9.7139 7.65127 9.52859 7.72803 9.39195 7.86466C9.25532 8.0013 9.17856 8.18661 9.17856 8.37984C9.17856 8.57307 9.25532 8.75838 9.39195 8.89502C9.52859 9.03165 9.7139 9.10841 9.90713 9.10841C10.1004 9.10841 10.2857 9.03165 10.4223 8.89502C10.5589 8.75838 10.6357 8.57307 10.6357 8.37984C10.6357 8.18661 10.5589 8.0013 10.4223 7.86466C10.2857 7.72803 10.1004 7.65127 9.90713 7.65127Z" fill="currentColor" />
<path d="M11.1238 3.64406C11.3738 2.58883 11.9784 1.65137 12.8365 0.988327C13.6946 0.325283 14.7543 -0.0231707 15.8384 0.0011965H15.8406C18.3804 0.0623965 20.4372 2.13518 20.4714 4.68446V4.68591C20.4796 5.3882 20.3315 6.08351 20.0379 6.72154C21.2607 8.21734 21.9286 10.0899 21.9286 12.0219C21.9286 16.6505 18.1779 20.4005 13.55 20.4005H8.44999C3.8221 20.4005 0.0714111 16.6505 0.0714111 12.0219C0.0714111 10.0103 0.785412 8.16484 1.96424 6.7179C1.66865 6.07892 1.51979 5.38189 1.52855 4.6779V4.67644C1.5628 2.13373 3.61956 0.0616681 6.15936 0.00192519H6.16154C7.24481 -0.0218733 8.30342 0.326922 9.16037 0.989994C10.0173 1.65307 10.6207 2.59023 10.8696 3.64478H11.1246L11.1238 3.64406ZM12.4863 4.27573C12.4546 4.50446 12.3413 4.71403 12.1672 4.86575C11.9931 5.01746 11.77 5.10109 11.5391 5.1012H10.4536C9.96469 5.1012 9.56835 4.73691 9.50569 4.27354C9.39416 3.47998 8.99523 2.75495 8.38458 2.23603C7.77392 1.7171 6.99403 1.44037 6.19287 1.45834C4.43556 1.5006 3.00974 2.93953 2.9857 4.69538C2.97934 5.18862 3.08497 5.67688 3.29461 6.12339L3.2968 6.12849L3.29898 6.13359C3.40885 6.37559 3.44886 6.64349 3.41449 6.90703C3.38011 7.17057 3.27272 7.41925 3.10446 7.62497C1.97688 8.99478 1.41871 10.7455 1.54531 12.5151L1.5883 12.5166C1.75295 12.5239 1.98683 12.5312 2.25858 12.5297C2.8123 12.5261 3.48623 12.4867 4.05451 12.3585C4.2658 12.3111 4.53537 12.1698 4.9441 11.8995C5.06359 11.8208 5.19764 11.729 5.34263 11.6299C5.6748 11.3984 6.01297 11.1756 6.3568 10.9618C7.48317 10.2741 8.9578 9.60814 11 9.60814C13.024 9.60814 14.4418 10.191 15.5164 10.8591C16.0045 11.1622 16.4206 11.4828 16.7688 11.7501L16.8475 11.8113C17.2307 12.1057 17.4959 12.2995 17.7305 12.4102C18.3207 12.6871 18.634 12.7672 18.9589 12.7964C19.1993 12.8182 19.4318 12.8131 19.7705 12.8058C19.9527 12.8022 20.1662 12.7978 20.4284 12.7964C20.5322 11.8756 20.4499 10.9434 20.1864 10.055C19.923 9.16669 19.4837 8.34032 18.8948 7.62497C18.7267 7.42046 18.6194 7.17285 18.5851 6.91033C18.5508 6.64781 18.591 6.38095 18.701 6.14014L18.7032 6.13431C18.9072 5.69644 19.0201 5.21413 19.0143 4.70194C19.0005 3.85224 18.6593 3.04063 18.0618 2.43634C17.4643 1.83204 16.6566 1.48169 15.8071 1.45834C15.0047 1.44006 14.2236 1.71679 13.6116 2.23607C12.9997 2.75535 12.5988 3.48109 12.4863 4.27573ZM20.1035 14.2586L19.9141 14.2623C19.5032 14.2695 19.1454 14.2768 18.83 14.2484C18.2828 14.1996 17.7983 14.0524 17.1105 13.7289C16.7083 13.5395 16.3178 13.2415 15.9608 12.9676L15.8887 12.9122C15.5346 12.6397 15.1725 12.3607 14.7485 12.0977C13.8655 11.5491 12.7107 11.066 11.0007 11.066C9.30897 11.066 8.09736 11.6073 7.11743 12.2062C6.78374 12.4102 6.49814 12.6055 6.21691 12.7986C6.06173 12.9049 5.908 13.0106 5.74771 13.1162C5.33607 13.3887 4.87124 13.6685 4.37654 13.7807C3.65671 13.9431 2.86184 13.9839 2.26878 13.9876C2.11577 13.9885 1.96275 13.987 1.80978 13.9832C2.23341 15.4157 3.10895 16.6727 4.3057 17.5666C5.50244 18.4606 6.95622 18.9435 8.44999 18.9433H13.55C14.9946 18.9436 16.4031 18.4919 17.5782 17.6515C18.7533 16.8112 19.636 15.6243 20.1028 14.2572L20.1035 14.2586Z" fill="currentColor"/>
</svg>
